<?xml version="1.0" standalone="no"?>
<!DOCTYPE svg PUBLIC "-//W3C//DTD SVG 20010904//EN"
 "http://www.w3.org/TR/2001/REC-SVG-20010904/DTD/svg10.dtd">
<svg version="1.0" xmlns="http://www.w3.org/2000/svg"
 width="2000.000000pt" height="2000.000000pt" viewBox="0 0 2000.000000 2000.000000"
 preserveAspectRatio="xMidYMid meet">

<g transform="translate(0.000000,2000.000000) scale(0.100000,-0.100000)"
fill="#000000" stroke="none">
<path d="M6505 17285 c-277 -31 -563 -111 -793 -220 -562 -268 -972 -752
-1116 -1320 -120 -476 -40 -937 226 -1297 255 -345 584 -530 983 -554 352 -21
835 136 835 272 0 45 -23 59 -94 59 -75 1 -119 21 -193 88 -221 203 -308 556
-233 947 58 305 236 605 487 826 342 298 796 463 1358 490 136 6 224 2 635
-31 397 -32 648 -46 977 -52 l342 -6 -182 -121 c-455 -304 -930 -665 -1378
-1049 -301 -258 -453 -398 -763 -706 -489 -484 -927 -985 -1291 -1476 -706
-952 -1197 -1892 -1485 -2841 -284 -938 -355 -1890 -195 -2609 87 -387 267
-760 499 -1033 541 -636 1434 -865 2264 -581 428 147 781 412 1017 764 191
284 264 554 252 925 -9 244 -41 412 -118 605 -84 209 -214 366 -368 443 -53
27 -97 42 -121 42 -69 0 -91 -58 -45 -120 79 -108 -38 -321 -226 -414 -138
-68 -268 -88 -408 -65 -341 55 -599 313 -742 739 -171 512 -140 1071 86 1535
187 386 495 662 878 790 190 63 288 78 512 79 220 1 270 -6 455 -61 504 -151
949 -577 1240 -1185 203 -425 310 -893 310 -1356 0 -151 -17 -250 -91 -532
-202 -767 -451 -1294 -767 -1622 -154 -160 -289 -247 -503 -323 -168 -60 -207
-103 -197 -216 6 -59 33 -92 98 -122 81 -38 238 -36 1400 18 403 19 781 19
1190 0 843 -39 1005 -45 1140 -45 167 0 208 9 258 55 36 32 37 36 37 103 0 65
-3 73 -42 128 -47 67 -100 178 -180 374 -332 817 -560 1891 -677 3190 -203
2236 -25 4623 463 6230 123 405 308 865 405 1010 35 51 37 59 34 117 -3 52 -9
68 -32 92 -46 48 -91 55 -339 48 -316 -9 -357 -13 -1122 -111 -379 -49 -543
-64 -826 -77 -354 -17 -977 6 -1439 51 -58 5 -266 26 -463 45 -695 68 -976 86
-1422 90 -305 3 -441 1 -530 -10z m4731 -687 c-493 -540 -789 -1214 -846
-1922 -6 -81 -10 -747 -10 -1799 l0 -1670 -88 85 c-519 500 -1232 787 -1963
788 -279 0 -584 -56 -874 -161 -193 -70 -490 -236 -650 -364 -44 -35 -81 -62
-83 -61 -2 2 24 84 56 182 398 1200 1277 2534 2266 3438 640 585 1240 1019
1926 1396 92 51 324 167 338 169 2 1 -31 -36 -72 -81z"/>
<path d="M13864 7990 c-321 -64 -603 -295 -735 -600 -66 -152 -84 -243 -83
-420 1 -133 5 -169 27 -251 117 -441 490 -744 944 -766 488 -24 938 310 1054
782 113 462 -120 949 -560 1170 -191 96 -433 128 -647 85z"/>
</g>
</svg>
